<?xml version="1.0" encoding="UTF-8"?>
<!DOCTYPE svg PUBLIC "-//W3C//DTD SVG 1.1//EN" "http://www.w3.org/Graphics/SVG/1.1/DTD/svg11.dtd">
<!-- Creator: CorelDRAW 2021 (64-Bit) -->
<svg xmlns="http://www.w3.org/2000/svg" xml:space="preserve" width="2.43435in" height="0.611417in" version="1.1" style="shape-rendering:geometricPrecision; text-rendering:geometricPrecision; image-rendering:optimizeQuality; fill-rule:evenodd; clip-rule:evenodd"
viewBox="0 0 335.41 84.24"
 xmlns:xlink="http://www.w3.org/1999/xlink"
 xmlns:xodm="http://www.corel.com/coreldraw/odm/2003">
 <defs>
  <style type="text/css">
   <![CDATA[
    .fil0 {fill:#0F1219}
    .fil1 {fill:#0F1219;fill-rule:nonzero}
    .fil3 {fill:url(#id0)}
    .fil2 {fill:url(#id1)}
   ]]>
  </style>
  <linearGradient id="id0" gradientUnits="userSpaceOnUse" x1="245.74" y1="45.48" x2="296.25" y2="0">
   <stop offset="0" style="stop-opacity:1; stop-color:#3A86FF"/>
   <stop offset="1" style="stop-opacity:1; stop-color:#73C2FF"/>
  </linearGradient>
  <linearGradient id="id1" gradientUnits="userSpaceOnUse" xlink:href="#id0" x1="2.83" y1="29.77" x2="8.06" y2="20.81">
  </linearGradient>
 </defs>
 <g id="Layer_x0020_1">
  <metadata id="CorelCorpID_0Corel-Layer"/>
  <g id="_1857365860240">
   <polygon class="fil0" points="21.96,84.24 35.56,84.24 35.56,46.92 68.24,84.24 76.35,84.24 76.35,20.84 62.75,20.84 62.75,52.95 33.08,20.84 21.96,20.84 "/>
   <polygon class="fil1" points="198.32,60.56 176.61,20.87 192.53,20.87 205.82,43.74 219.19,20.87 234.52,20.87 212.8,60.39 212.8,84.24 198.32,84.24 "/>
   <path class="fil1" d="M152.67 20.87l15.08 0 22.91 63.37 -15.33 0 -4 -12.09 -23 0 -3.92 12.09 -14.56 0 22.83 -63.37zm-0.94 38.13l16.27 0 -7.92 -23.2 -8.35 23.2z"/>
   <path class="fil1" d="M84.85 20.87l28.19 0c10.33,0 17.86,3.99 21.42,12.56 3.12,7.49 1.71,17.46 -4.17,23.17 -4.09,3.96 -9.61,5.66 -15.54,5.66l-15.16 0 0 21.97 -14.73 0 0 -63.37zm14.73 29.9l12.35 0c11.18,0 11.01,-11.59 7.03,-15.29 -1.62,-1.5 -3.93,-2.26 -6.94,-2.26l-12.44 0 0 17.55z"/>
   <polygon class="fil1" points="0.09,39.85 13.46,39.85 13.46,84.24 0.09,84.24 "/>
   <polygon class="fil2" points="-0,20.87 13.54,20.87 13.54,32.54 -0,32.54 "/>
   <path class="fil3" d="M269.23 0l41.63 0c5.07,0 6.82,4.15 3.88,9.22l-21.46 37.07 -13.6 -28.37 -11.58 0 -24.4 42.15 -9.25 0c-5.07,0 -6.82,-4.15 -3.88,-9.22l24.1 -41.63c2.94,-5.07 9.49,-9.22 14.57,-9.22z"/>
   <path class="fil1" d="M295.32 84.24l-41.63 0c-5.07,0 -6.82,-4.15 -3.88,-9.22l21.46 -37.07 13.6 28.37 11.58 0 24.4 -42.15 9.25 0c5.07,0 6.82,4.15 3.88,9.22l-24.1 41.63c-2.94,5.07 -9.49,9.22 -14.57,9.22z"/>
  </g>
 </g>
</svg>
